<?xml version="1.0"?>
<svg xmlns="http://www.w3.org/2000/svg" height="512px" viewBox="0 0 479 479.99722" width="512px"><path d="m408.5 336c-8.46875.019531-16.867188 1.542969-24.800781 4.496094l-35.648438-71.304688 27.664063 2.769532c.265625 0 .527344.039062.800781.039062 2.460937 0 4.785156-1.136719 6.300781-3.074219 1.515625-1.941406 2.054688-4.472656 1.457032-6.863281l-8-32c-.636719-2.828125-2.757813-5.09375-5.539063-5.914062-2.785156-.824219-5.796875-.070313-7.867187 1.960937-2.070313 2.03125-2.878907 5.027344-2.113282 7.828125l5.242188 20.964844-68.699219-6.863282c-4.394531-.441406-8.316406 2.765626-8.757813 7.160157-.441406 4.398437 2.761719 8.320312 7.160157 8.761719l33.597656 3.359374c0 .078126 0 .175782.074219.253907l10.183594 20.425781h-105l-12.742188-24h10.6875c13.253906 0 24-10.746094 24-24s-10.746094-24-24-24h-56v-40c0-13.253906-10.746094-24-24-24h-24.882812c16.296874-15.90625 21.339843-40.097656 12.75-61.191406-8.585938-21.089844-29.089844-34.882813-51.863282-34.882813-22.773437 0-43.28125 13.792969-51.867187 34.882813-8.585938 21.09375-3.546875 45.285156 12.75 61.191406h-24.886719c-13.257812 0-24 10.746094-24 24v88c0 13.253906 10.742188 24 24 24h8v81.472656c-9.554688 3.378906-15.960938 12.394532-16 22.527344v16c0 4.417969 3.582031 8 8 8h48c4.417969 0 8-3.582031 8-8s-3.582031-8-8-8h-40v-8c0-4.417969 3.582031-8 8-8h48c4.417969 0 8-3.582031 8-8v-84c0-4.417969-3.582031-8-8-8s-8 3.582031-8 8v76h-32v-104h80v56c0 4.417969 3.582031 8 8 8s8-3.582031 8-8v-57.472656c2.5625.949218 5.265625 1.445312 8 1.472656h51.199219l14.472656 27.238281c-.304687.367188-.574219.765625-.800781 1.1875l-24.074219 48.070313c-28.808594-10.570313-61.148437-1.707032-80.542969 22.074218-19.394531 23.78125-21.570312 57.246094-5.421875 83.339844 16.148438 26.09375 47.070313 39.074219 77.003907 32.324219 29.9375-6.746094 52.296874-31.734375 55.691406-62.234375h17.597656c3.371094 13.101562 14.625 22.660156 28.101562 23.859375 13.472657 1.199219 26.242188-6.21875 31.871094-18.519531 5.628906-12.300782 2.898438-26.816406-6.820312-36.226563l41.242187-72.167969 17.351563 34.695313c-29.941406 19.488281-41.03125 58.003906-26.039063 90.425781 14.992188 32.425782 51.519531 48.925782 85.757813 38.742188 34.242187-10.1875 55.808594-43.96875 50.640625-79.316406-5.167969-35.347657-35.507813-61.539063-71.230469-61.492188zm-168-96c0 4.417969-3.582031 8-8 8h-32c-4.417969 0-8-3.582031-8-8s3.582031-8 8-8h32c4.417969 0 8 3.582031 8 8zm-192-128c0-22.089844 17.90625-40 40-40 22.089844 0 40 17.910156 40 40s-17.910156 40-40 40c-22.082031-.027344-39.976562-17.917969-40-40zm96 128v-40c0-4.417969-3.582031-8-8-8s-8 3.582031-8 8v40c.023438 2.730469.523438 5.4375 1.46875 8h-81.46875v-48c0-4.417969-3.582031-8-8-8s-8 3.582031-8 8v72h-8c-4.417969 0-8-3.582031-8-8v-88c0-4.417969 3.582031-8 8-8h128c4.417969 0 8 3.582031 8 8v48c0 4.417969 3.582031 8 8 8h9.46875c-1.960938 5.152344-1.960938 10.847656 0 16h-25.46875c-4.417969 0-8-3.582031-8-8zm82.757812 68.367188 40.21875 75.695312c-4.804687 4.207031-8.230468 9.761719-9.84375 15.9375h-17.597656c-2.417968-21.425781-14.304687-40.636719-32.402344-52.359375zm-3.398437 91.632812h-42.402344l18.976563-37.953125c12.726562 8.863281 21.207031 22.605469 23.425781 37.953125zm-55.359375 64c-22.1875.050781-42.3125-13.003906-51.3125-33.28125s-5.183594-43.957031 9.738281-60.378906c14.921875-16.417969 38.128907-22.484375 59.171875-15.460938l-24.800781 49.546875c-1.242187 2.484375-1.105469 5.4375.363281 7.800781 1.46875 2.359376 4.058594 3.789063 6.839844 3.773438h55.359375c-3.972656 27.527344-27.546875 47.96875-55.359375 48zm120-40c-8.839844 0-16-7.164062-16-16s7.160156-16 16-16c2.734375.015625 5.421875.746094 7.789062 2.113281l.097657.078125c.046875 0 .105469 0 .152343.054688 6.246094 3.625 9.28125 10.992187 7.398438 17.964844-1.886719 6.96875-8.21875 11.804687-15.4375 11.789062zm8.359375-46.753906c-4.921875-1.476563-10.140625-1.644532-15.144531-.484375l-38.65625-72.761719h95.65625zm111.640625 86.753906c-24.453125-.039062-46.050781-15.933594-53.355469-39.269531-7.308593-23.332031 1.371094-48.707031 21.433594-62.683594l24.800781 49.527344c1.265625 2.582031 3.8125 4.285156 6.683594 4.464843 2.867188.179688 5.609375-1.191406 7.1875-3.589843 1.578125-2.402344 1.746094-5.464844.441406-8.023438l-24.792968-49.546875c21.046874-7.023437 44.253906-.957031 59.171874 15.460938 14.921876 16.421875 18.742188 40.101562 9.738282 60.378906-9 20.277344-29.125 33.332031-51.308594 33.28125zm0 0" fill="#FFFFFF"/><path d="m240.5 144c4.417969 0 8-3.582031 8-8 .027344-28.324219 18.671875-53.261719 45.828125-61.300781 27.160156-8.039063 56.375 2.726562 71.820313 26.46875 1.183593 1.820312 3.058593 3.078125 5.195312 3.488281 2.132812.40625 4.339844-.066406 6.113281-1.320312 11.03125-7.777344 25.242188-9.46875 37.789063-4.496094 12.550781 4.972656 21.746094 15.9375 24.453125 29.160156h-111.199219c-4.417969 0-8 3.582031-8 8s3.582031 8 8 8h120c4.417969 0 8-3.582031 8-8-.035156-30.914062-25.089844-55.964844-56-56-8.863281-.011719-17.601562 2.101562-25.480469 6.160156-21.199219-26.554687-56.855469-36.820312-88.929687-25.601562-32.070313 11.214844-53.558594 41.464844-53.589844 75.441406 0 4.417969 3.582031 8 8 8zm0 0" fill="#FFFFFF"/><path d="m400.5 64c17.671875 0 32-14.328125 32-32s-14.328125-32-32-32c-17.675781 0-32 14.328125-32 32s14.324219 32 32 32zm0-48c8.835938 0 16 7.164062 16 16s-7.164062 16-16 16c-8.839844 0-16-7.164062-16-16s7.160156-16 16-16zm0 0" fill="#FFFFFF"/><path d="m288.5 166.238281c-4.375-3.992187-10.078125-6.21875-16-6.238281-4.417969 0-8 3.582031-8 8s3.582031 8 8 8 8 3.582031 8 8 3.582031 8 8 8 8-3.582031 8-8 3.582031-8 8-8 8-3.582031 8-8-3.582031-8-8-8c-5.925781.019531-11.628906 2.246094-16 6.238281zm0 0" fill="#FFFFFF"/><path d="m416.5 190.238281c-4.375-3.992187-10.078125-6.21875-16-6.238281-4.417969 0-8 3.582031-8 8s3.582031 8 8 8 8 3.582031 8 8 3.582031 8 8 8 8-3.582031 8-8 3.582031-8 8-8 8-3.582031 8-8-3.582031-8-8-8c-5.925781.019531-11.628906 2.246094-16 6.238281zm0 0" fill="#FFFFFF"/></svg>
