<?xml version="1.0" encoding="iso-8859-1"?>
<!-- Generator: Adobe Illustrator 19.0.0, SVG Export Plug-In . SVG Version: 6.00 Build 0)  -->
<svg xmlns="http://www.w3.org/2000/svg" xmlns:xlink="http://www.w3.org/1999/xlink" version="1.1" id="Capa_1" x="0px" y="0px" viewBox="0 0 511.998 511.998" style="enable-background:new 0 0 511.998 511.998;" xml:space="preserve" width="512px" height="512px">
<g>
	<g>
		<path d="M479.516,98.296c-13.296-13.294-31.23-19.853-49.519-18.493c1.361-18.294-5.198-36.224-18.493-49.518    c-24.807-24.806-65.167-24.806-89.975,0c-24.806,24.806-24.806,65.168,0,89.974c0.117,0.118,0.236,0.235,0.356,0.354    l-199.08,199.08c-0.117-0.119-0.234-0.237-0.353-0.356c-24.808-24.806-65.169-24.805-89.976,0    c-24.805,24.806-24.805,65.168,0,89.975c13.295,13.294,31.226,19.853,49.519,18.493c-1.361,18.295,5.198,36.224,18.493,49.519    c12.404,12.403,28.696,18.604,44.987,18.604s32.583-6.201,44.987-18.604c24.806-24.806,24.806-65.168,0-89.974    c-0.115-0.118-0.233-0.235-0.353-0.354l141.024-141.023c2.935-2.935,2.935-7.693,0-10.626c-2.937-2.936-7.694-2.934-10.627,0    L173.761,382.09c-3.186,3.186-2.796,8.623,0.806,11.326c1.892,1.418,3.664,2.952,5.273,4.56    c18.946,18.946,18.946,49.774-0.001,68.721c-18.944,18.946-49.775,18.946-68.719,0c-12.16-12.159-16.942-29.399-12.793-46.116    c0.635-2.557-0.116-5.26-1.98-7.124c-1.864-1.864-4.565-2.614-7.124-1.98c-16.718,4.149-33.959-0.634-46.116-12.792    c-18.946-18.946-18.946-49.775,0-68.721c18.946-18.946,49.775-18.946,68.719-0.001c1.612,1.614,3.148,3.387,4.561,5.273    c2.702,3.603,8.14,3.993,11.327,0.805l210.521-210.523c3.186-3.187,2.796-8.625-0.808-11.327c-1.888-1.415-3.66-2.948-5.271-4.559    c-18.946-18.946-18.946-49.774,0.001-68.721c18.944-18.946,49.775-18.946,68.719,0c12.16,12.159,16.942,29.399,12.793,46.116    c-1.34,5.396,3.708,10.441,9.103,9.103c16.714-4.15,33.958,0.633,46.116,12.792c18.946,18.946,18.946,49.775,0,68.721    c-18.945,18.946-49.774,18.946-68.719,0.001c-1.612-1.614-3.148-3.387-4.561-5.273c-2.701-3.602-8.14-3.992-11.327-0.806    l-36.976,36.977c-2.935,2.935-2.935,7.693,0,10.626c2.936,2.934,7.693,2.935,10.627,0l31.255-31.255    c0.117,0.119,0.234,0.237,0.353,0.356c24.808,24.807,65.169,24.805,89.976,0C504.321,163.464,504.321,123.102,479.516,98.296z" fill="#FFFFFF"/>
	</g>
</g>
<g>
	<g>
		<path d="M509.785,336.834l-98.683-98.683c-4.638-4.636-12.828-1.238-12.828,5.313v58.7    c-43.887-4.541-87.916,10.921-119.256,42.261c-20.16,20.161-33.938,45.497-39.843,73.267c-5.749,27.042-3.816,55.043,5.591,80.976    c0.759,2.093,2.409,3.742,4.502,4.502c16.18,5.869,33.164,8.829,50.219,8.829c10.281,0,20.587-1.076,30.758-3.238    c27.77-5.904,53.105-19.682,73.267-39.843c32.677-32.677,47.907-78.335,41.729-123.79l58.656,4.512    C510.695,350.154,514.617,341.667,509.785,336.834z M436.8,329.405c-4.893-0.376-8.922,4.18-7.939,8.995    c8.905,43.638-4.545,88.458-35.979,119.891c-35.266,35.267-87.962,47.598-135.151,31.913    c-15.688-47.191-3.355-99.884,31.913-135.152c30.003-30.004,72.959-43.796,114.923-36.888c4.508,0.741,8.735-2.85,8.735-7.414    v-49.144l71.491,71.492L436.8,329.405z" fill="#FFFFFF"/>
	</g>
</g>
<g>
	<g>
		<path d="M310.25,420.683c-9.179-9.18-24.117-9.182-33.296-0.001c-4.448,4.447-6.897,10.36-6.897,16.65    c0,6.289,2.449,12.201,6.896,16.649c0,0,0,0,0.001,0c4.446,4.446,10.36,6.896,16.648,6.896c6.289,0,12.202-2.45,16.649-6.896    C319.429,444.801,319.429,429.864,310.25,420.683z M299.623,443.353c-1.608,1.608-3.746,2.495-6.021,2.495    s-4.412-0.886-6.021-2.495h-0.001c-1.608-1.608-2.494-3.747-2.494-6.021c0-2.275,0.886-4.413,2.495-6.022    c1.66-1.66,3.84-2.49,6.021-2.49s4.362,0.831,6.021,2.49C302.944,434.63,302.944,440.033,299.623,443.353z" fill="#FFFFFF"/>
	</g>
</g>
<g>
	<g>
		<path d="M344.959,356.26c-4.445-4.447-10.359-6.897-16.648-6.897s-12.202,2.45-16.649,6.896    c-2.896,2.896-2.895,7.732,0.001,10.627c2.896,2.896,7.732,2.893,10.626,0c3.521-3.521,9.482-3.212,12.626,0.646    c2.72,3.338,2.46,8.355-0.584,11.398c-2.735,2.736-2.917,7.255-0.399,10.196c2.81,3.281,7.969,3.487,11.026,0.431    C354.137,380.377,354.137,365.441,344.959,356.26z" fill="#FFFFFF"/>
	</g>
</g>
<g>
	<g>
		<path d="M396.373,351.564c-4.448-4.446-10.361-6.896-16.65-6.896s-12.202,2.45-16.649,6.896    c-2.866,2.867-2.865,7.761,0.001,10.627s7.76,2.865,10.626,0c3.286-3.286,8.756-3.276,12.044,0c3.286,3.276,3.278,8.766,0,12.043    c-2.736,2.735-2.919,7.254-0.4,10.195c2.809,3.281,7.97,3.489,11.026,0.432c4.447-4.446,6.897-10.36,6.897-16.649    C403.269,361.924,400.82,356.011,396.373,351.564z" fill="#FFFFFF"/>
	</g>
</g>
<g>
	<g>
		<path d="M391.393,401.316c-4.447-4.447-10.361-6.896-16.65-6.896c-6.289,0-12.202,2.45-16.649,6.896    c-2.896,2.896-2.894,7.732,0.001,10.627s7.732,2.894,10.626,0c3.286-3.286,8.756-3.276,12.044,0c3.287,3.276,3.278,8.765,0,12.043    c-2.736,2.735-2.919,7.255-0.4,10.196c2.809,3.281,7.97,3.488,11.026,0.432c4.448-4.447,6.897-10.36,6.897-16.65    C398.289,411.675,395.84,405.763,391.393,401.316z" fill="#FFFFFF"/>
	</g>
</g>
<g>
	<g>
		<path d="M267.231,13.331c-0.759-2.093-2.409-3.742-4.502-4.502c-25.933-9.407-53.934-11.341-80.976-5.591    c-27.77,5.904-53.105,19.682-73.267,39.843c-31.34,31.34-46.799,75.367-42.261,119.255H7.524c-6.549,0-9.95,8.191-5.314,12.827    l98.683,98.683c1.442,1.441,3.364,2.201,5.316,2.201c4.32,0,7.821-3.792,7.49-8.09l-4.512-58.656    c45.456,6.182,91.112-9.051,123.791-41.729c20.16-20.161,33.938-45.497,39.843-73.267    C278.57,67.265,276.638,39.264,267.231,13.331z M222.351,156.946c-31.432,31.433-76.252,44.884-119.89,35.978    c-4.814-0.98-9.373,3.043-8.995,7.939l3.692,47.995l-71.492-71.492H74.81c4.565,0,8.156-4.227,7.414-8.735    c-6.907-41.956,6.884-84.918,36.889-114.923c35.265-35.267,87.96-47.6,135.151-31.913    C269.952,68.986,257.62,121.679,222.351,156.946z" fill="#FFFFFF"/>
	</g>
</g>
<g>
	<g>
		<path d="M218.04,41.015C218.04,41.015,218.04,41.015,218.04,41.015c-4.448-4.446-10.361-6.896-16.65-6.896    s-12.202,2.45-16.649,6.896c-9.18,9.181-9.18,24.117,0,33.297c4.447,4.446,10.36,6.896,16.649,6.896s12.202-2.449,16.65-6.896    C227.22,65.132,227.22,50.196,218.04,41.015z M207.415,63.686c-1.609,1.609-3.748,2.495-6.023,2.495s-4.412-0.886-6.021-2.495    c-3.321-3.32-3.321-8.724,0-12.044c1.608-1.608,3.746-2.495,6.021-2.495s4.413,0.886,6.022,2.495    C210.734,54.962,210.734,60.365,207.415,63.686z" fill="#FFFFFF"/>
	</g>
</g>
<g>
	<g>
		<path d="M153.616,98.395c-2.934-2.935-7.692-2.934-10.626,0c-3.286,3.286-8.757,3.276-12.044,0c-3.286-3.276-3.278-8.765,0-12.043    c2.936-2.935,2.936-7.693,0.001-10.627c-2.936-2.934-7.694-2.935-10.626,0c-4.447,4.448-6.897,10.36-6.897,16.65    c0,6.289,2.449,12.201,6.896,16.649c4.447,4.448,10.359,6.895,16.649,6.895c6.289,0,12.202-2.45,16.649-6.896    C156.552,106.087,156.552,101.329,153.616,98.395z" fill="#FFFFFF"/>
	</g>
</g>
<g>
	<g>
		<path d="M148.92,149.807c-2.934-2.935-7.692-2.934-10.626,0c-5.258,5.258-14.538,1.414-14.538-6.021    c0-2.274,0.886-4.413,2.494-6.021c2.936-2.935,2.936-7.692,0.001-10.626c-2.935-2.935-7.693-2.937-10.626-0.001    c-4.448,4.446-6.897,10.36-6.897,16.649c0,6.289,2.449,12.202,6.896,16.649c4.447,4.446,10.36,6.896,16.649,6.896    c6.289,0,12.202-2.45,16.649-6.896C151.856,157.499,151.856,152.741,148.92,149.807z" fill="#FFFFFF"/>
	</g>
</g>
<g>
	<g>
		<path d="M198.673,144.827c-2.936-2.935-7.693-2.935-10.627,0c-3.277,3.277-8.766,3.278-12.044,0    c-3.278-3.278-3.278-8.767,0-12.044c2.935-2.935,2.935-7.693-0.001-10.627c-2.934-2.935-7.692-2.934-10.626,0    c-9.178,9.181-9.178,24.117,0.001,33.297c4.59,4.591,10.62,6.885,16.649,6.885c6.03,0,12.059-2.295,16.649-6.885    C201.608,152.519,201.608,147.761,198.673,144.827z" fill="#FFFFFF"/>
	</g>
</g>
<g>
</g>
<g>
</g>
<g>
</g>
<g>
</g>
<g>
</g>
<g>
</g>
<g>
</g>
<g>
</g>
<g>
</g>
<g>
</g>
<g>
</g>
<g>
</g>
<g>
</g>
<g>
</g>
<g>
</g>
</svg>
