<?xml version="1.0"?>
<svg xmlns="http://www.w3.org/2000/svg" height="512px" viewBox="-62 0 512 512" width="512px"><path d="m132.902344 193.382812h11.703125c4.144531 0 7.5-3.359374 7.5-7.5 0-4.140624-3.355469-7.5-7.5-7.5h-9.203125v-29.824218c0-4.144532-3.359375-7.5-7.5-7.5s-7.5 3.355468-7.5 7.5v32.324218c0 6.890626 5.605468 12.5 12.5 12.5zm0 0" fill="#00c8cd"/><path d="m136.253906 232.546875c12.59375 0 25.195313-4.769531 34.785156-14.300781 2.9375-2.921875 2.949219-7.667969.03125-10.605469-2.921874-2.9375-7.671874-2.953125-10.609374-.03125-13.347657 13.269531-35.066407 13.269531-48.414063 0-2.9375-2.917969-7.6875-2.90625-10.605469.03125-2.921875 2.9375-2.90625 7.683594.03125 10.605469 9.589844 9.535156 22.183594 14.300781 34.78125 14.300781zm0 0" fill="#00c8cd"/><path d="m91.722656 167.898438c4.144532 0 7.5-3.359376 7.5-7.5v-19.6875c0-4.140626-3.355468-7.5-7.5-7.5-4.140625 0-7.5 3.359374-7.5 7.5v19.6875c0 4.140624 3.359375 7.5 7.5 7.5zm0 0" fill="#00c8cd"/><path d="m180.785156 167.898438c4.140625 0 7.5-3.359376 7.5-7.5v-19.6875c0-4.140626-3.359375-7.5-7.5-7.5-4.144531 0-7.5 3.359374-7.5 7.5v19.6875c0 4.140624 3.355469 7.5 7.5 7.5zm0 0" fill="#00c8cd"/><path d="m297.808594 249.660156c-2.476563-2.886718-6.394532-4.234375-10.167969-3.433594-11.148437 2.382813-21.3125 7.917969-29.394531 16-3.816406 3.816407-7.011719 8.027344-9.59375 12.5h-10.886719c13.25-14.457031 21.351563-33.699218 21.351563-54.808593v-28.976563c3.492187-4.65625 5.5625-10.425781 5.5625-16.671875v-17.75c0-6.242187-2.070313-12.011719-5.5625-16.667969v-15.851562c0-4.140625-3.355469-7.5-7.5-7.5-4.140626 0-7.5 3.359375-7.5 7.5v5.625c-2.378907-.65625-4.878907-1.015625-7.464844-1.015625h-4.109375v-10.445313c0-6.882812-5.601563-12.484374-12.484375-12.484374h-23.902344c-8.589844 0-16.882812-4.117188-22.179688-11.015626-2.542968-3.3125-6.628906-5.171874-10.878906-4.84375-4.226562.332032-7.960937 2.753907-9.988281 6.480469-3.484375 6.398438-9.132813 9.378907-17.769531 9.378907h-82.890625c-6.882813 0-12.484375 5.601562-12.484375 12.484374v10.445313h-4.109375c-2.585938 0-5.085938.359375-7.464844 1.015625v-48.398438c0-36.515624 29.710937-66.226562 66.226563-66.226562h83.273437c36.515625 0 66.226563 29.710938 66.226563 66.226562v6.773438c0 4.140625 3.359374 7.5 7.5 7.5 4.140624 0 7.5-3.359375 7.5-7.5v-6.773438c0-44.789062-36.4375-81.226562-81.226563-81.226562h-83.273437c-44.789063 0-81.226563 36.4375-81.226563 81.226562v58.625c-3.492187 4.65625-5.5625 10.425782-5.5625 16.667969v17.75c0 6.242188 2.070313 12.015625 5.5625 16.667969v28.976562c0 21.019532 8.03125 40.191407 21.183594 54.628907h-6.957031c-15.226563 0-27.617188 12.339843-27.617188 27.503906v197.292969c0 6.980468 5.683594 12.660156 12.667969 12.660156h247.175781c6.984375 0 12.667969-5.679688 12.667969-12.660156v-30.839844h1.460937c6.890625 0 12.5-5.605469 12.5-12.5v-69.164062c15.03125-11.035157 24.8125-28.816407 24.8125-48.851563v-2.65625c0-8.082031-1.605468-15.796875-4.488281-22.851563 9.398437-20.71875 6.113281-45.183593-8.988281-62.816406zm-9.679688 11.886719c7.484375 9.898437 10.304688 22.25 8.261719 34.0625-7.992187-9.1875-18.691406-15.957031-30.855469-19.035156 1.035156-1.289063 2.121094-2.546875 3.316406-3.742188 5.386719-5.386719 12.007813-9.253906 19.277344-11.285156zm-175.699218 9.566406c7.625 1.9375 15.601562 2.96875 23.824218 2.96875 7.332032 0 14.472656-.824219 21.339844-2.375-2.585938 8.082031-3.394531 16.621094-2.382812 25.03125-4.355469 5.675781-11.230469 9.347657-18.957032 9.347657-13.136718 0-23.824218-10.605469-23.824218-23.644532zm57.816406 24.734375c-1.519532-10.726562.953125-21.796875 7.25-31.007812.878906-.417969 1.753906-.84375 2.621094-1.285156 6.71875 2.121093 12.84375 5.808593 17.875 10.84375.796874.796874 1.546874 1.621093 2.273437 2.460937-11.835937 3.21875-22.234375 9.945313-30.019531 18.988281zm66.40625-152.234375c7.183594 0 13.027344 5.789063 13.027344 12.90625v17.75c0 7.121094-5.84375 12.910157-13.027344 12.910157h-4.527344c.273438-2.925782.417969-5.886719.417969-8.882813v-34.683594zm-7.136719 58.566407h7.140625c2.582031 0 5.085938-.355469 7.460938-1.011719v18.746093c0 22.09375-10.882813 41.675782-27.558594 53.710938-2.261719-3.484375-4.910156-6.785156-7.957032-9.832031-3.949218-3.953125-8.402343-7.289063-13.21875-9.953125 16.523438-12.824219 28.753907-30.890625 34.132813-51.660156zm-174.550781-81.5h80.375c12.761718 0 22.730468-4.863282 29.054687-14.117188 8.113281 8.898438 19.738281 14.117188 31.761719 14.117188h21.390625v57.617187c0 29.402344-15.898437 55.179687-39.589844 69.3125-.316406-.027344-.628906-.050781-.945312-.050781-3.070313 0-5.980469 1.339844-7.976563 3.671875-.429687.5-.84375 1.011719-1.257812 1.527343-9.699219 4.070313-20.351563 6.324219-31.523438 6.324219-44.824218 0-81.289062-36.238281-81.289062-80.785156zm-15 22.933593v34.683594c0 2.996094.144531 5.957031.417968 8.882813h-4.527343c-7.183594 0-13.027344-5.792969-13.027344-12.910157v-17.75c0-7.117187 5.84375-12.910156 13.027344-12.910156h4.109375zm-11.574219 76.304688v-18.75c2.378906.65625 4.878906 1.011719 7.464844 1.011719h7.140625c7.398437 28.574218 27.753906 52.019531 54.4375 63.761718v8.601563h-40.191406c-17.40625-11.945313-28.851563-31.96875-28.851563-54.625zm-13.390625 82.128906c0-6.894531 5.660156-12.503906 12.617188-12.503906h70.480468c3.363282 17.925781 19.1875 31.542969 38.15625 31.542969 8.800782 0 16.925782-2.9375 23.441406-7.871094.011719.023437.023438.050781.035157.078125-2.425781 6.1875-3.863281 12.867187-4.109375 19.847656h-39.199219c-4.140625 0-7.5 3.355469-7.5 7.5 0 4.140625 3.359375 7.5 7.5 7.5h40c2.898437 17.09375 12.984375 31.769531 27.03125 40.8125.019531 6.226563 1.488281 12.117187 4.078125 17.355469h-87.742188c-6.398437 0-11.605468 5.207031-11.605468 11.605468v11.992188h-13.019532c-6.394531 0-11.601562 5.203125-11.601562 11.601562v8.300782h-1.375v-100.820313c2.828125-.550781 5.742188-.851562 8.730469-.851562h9.503906c4.140625 0 7.5-3.355469 7.5-7.5 0-4.140625-3.359375-7.5-7.5-7.5h-9.503906c-2.96875 0-5.878907.226562-8.730469.644531v-3.171875c0-4.140625-3.359375-7.5-7.5-7.5s-7.5 3.359375-7.5 7.5v121.699219c0 6.890625 5.609375 12.5 12.5 12.5h103.945312v32.191406h-148.632812zm214.539062 77.492187h7.765626c8.714843 0 16.109374-5.761718 18.574218-13.679687 7.460938 4.21875 12.515625 12.207031 12.515625 21.375v1.601563c0 13.539062-11.011719 24.554687-24.554687 24.554687h-20.835938c-13.539062 0-24.554687-11.015625-24.554687-24.554687v-1.601563c0-9.164063 5.058593-17.15625 12.519531-21.371094 2.460938 7.914063 9.855469 13.675781 18.570312 13.675781zm-4.445312-19.445312v-.597656c0-2.449219 1.996094-4.445313 4.445312-4.445313h7.765626c2.453124 0 4.445312 1.996094 4.445312 4.445313v.597656c0 2.453125-1.992188 4.445312-4.445312 4.445312h-7.765626c-2.449218 0-4.445312-1.992187-4.445312-4.445312zm-24.632812 61.214844c6.398437 4.457031 14.167968 7.082031 22.542968 7.082031h20.835938c10.746094 0 20.496094-4.3125 27.628906-11.285156v36.394531h-73.726562c-2.117188-2.265625-5.121094-3.691406-8.460938-3.691406h-66.445312v-28.5zm10.046874 75.691406h-31.875v-32.191406h7.253907v16.097656c0 4.140625 3.355469 7.5 7.5 7.5h17.121093zm-102.671874-75.691406v28.5h-29.273438v-4.902344h17.121094c4.140625 0 7.5-3.359375 7.5-7.5v-16.097656zm149.675781 75.691406h-32.003907v-11.992188c0-6.398437-5.207031-11.601562-11.605468-11.601562h-13.019532v-4.90625h56.625v28.5zm38.769531-159.015625c0 13.746094-6.128906 26.078125-15.777344 34.445313-4.683594-11.554688-14.660156-20.414063-26.917968-23.535157-3.472657-5.316406-9.46875-8.84375-16.28125-8.84375h-7.765626c-6.8125 0-12.808593 3.527344-16.28125 8.847657-12.253906 3.117187-22.242187 11.96875-26.925781 23.519531-9.644531-8.367188-15.769531-20.691407-15.769531-34.433594v-2.65625c0-25.144531 20.457031-45.601563 45.601562-45.601563h34.515626c25.144531 0 45.601562 20.457032 45.601562 45.601563zm0 0" fill="#00c8cd"/><path d="m208.199219 313.984375c-4.140625 0-7.5 3.359375-7.5 7.5v4.480469c0 4.140625 3.359375 7.5 7.5 7.5s7.5-3.359375 7.5-7.5v-4.480469c0-4.140625-3.359375-7.5-7.5-7.5zm0 0" fill="#00c8cd"/><path d="m258.644531 313.984375c-4.140625 0-7.5 3.359375-7.5 7.5v4.480469c0 4.140625 3.359375 7.5 7.5 7.5 4.144531 0 7.5-3.359375 7.5-7.5v-4.480469c0-4.140625-3.355469-7.5-7.5-7.5zm0 0" fill="#00c8cd"/><path d="m379.441406 171.726562c-6.042968-5.949218-14.066406-9.226562-22.597656-9.226562-8.523438 0-16.546875 3.277344-22.589844 9.226562l-5.066406 4.992188-5.066406-4.992188c-6.039063-5.949218-14.0625-9.226562-22.589844-9.226562-8.535156 0-16.558594 3.277344-22.597656 9.226562-6.0625 5.976563-9.402344 13.933594-9.402344 22.414063s3.339844 16.441406 9.402344 22.414063l41.496094 40.871093c2.351562 2.308594 5.460937 3.578125 8.757812 3.578125 3.300781 0 6.414062-1.273437 8.765625-3.585937l13.734375-13.527344c2.949219-2.90625 2.984375-7.65625.078125-10.605469-2.90625-2.949218-7.65625-2.988281-10.605469-.082031l-11.972656 11.792969-39.726562-39.128906c-3.179688-3.128907-4.929688-7.292969-4.929688-11.726563 0-4.429687 1.75-8.59375 4.929688-11.726563 3.214843-3.167968 7.5-4.914062 12.066406-4.914062s8.851562 1.746094 12.066406 4.914062l10.332031 10.175782c2.917969 2.875 7.605469 2.875 10.523438 0l10.328125-10.175782c3.21875-3.167968 7.503906-4.914062 12.066406-4.914062 4.566406 0 8.851562 1.746094 12.070312 4.914062 3.179688 3.132813 4.929688 7.296876 4.929688 11.726563s-1.75 8.59375-4.929688 11.726563l-1.816406 1.789062c-2.953125 2.910156-2.988281 7.65625-.082031 10.609375 2.90625 2.949219 7.65625 2.988281 10.605469.078125l1.816406-1.789062c6.066406-5.972657 9.40625-13.933594 9.40625-22.414063s-3.339844-16.441406-9.402344-22.414063zm0 0" fill="#00c8cd"/></svg>
