<?xml version="1.0"?>
<svg xmlns="http://www.w3.org/2000/svg" height="512px" viewBox="1 -109 511.999 511" width="512px"><path d="m497.714844 224.4375h-5.828125c-6.667969-20.378906-13.726563-41.859375-22.25-62.675781-1.566407-3.835938-5.945313-5.667969-9.78125-4.101563-3.832031 1.570313-5.667969 5.949219-4.101563 9.78125 3.347656 8.171875 6.429688 16.390625 9.363282 24.597656h-418.238282c10.8125-30.28125 23.882813-60.847656 42.503906-85.8125 4.800782-6.433593 11.878907-10.125 19.417969-10.125h294.398438c7.539062 0 14.617187 3.691407 19.417969 10.125 6.003906 8.050782 11.589843 16.867188 17.066406 26.953126 1.980468 3.640624 6.53125 4.988281 10.171875 3.007812 3.640625-1.976562 4.988281-6.527344 3.011719-10.167969-5.828126-10.722656-11.789063-20.132812-18.226563-28.761719-6.453125-8.652343-15.605469-14.175781-25.699219-15.707031-2.054687-15.964843-14.203125-28.8125-29.820312-31.910156-2.53125-23.417969-26.375-38.789063-48.84375-30.835937-19.050782-26.347657-58.980469-23.722657-74.71875 4.460937-3.964844-.910156-8.109375-1.136719-12.195313-.652344-15.324219-31.699219-61.605469-28.496093-72.621093 4.792969-23.15625-4.703125-44.863282 11.40625-48.15625 33.796875-.289063 1.984375-.4375 4-.433594 6-6.300782 2.980469-11.496094 7.894531-14.863282 13.945313-11.742187.460937-22.585937 6.265624-29.929687 16.109374-27.707031 37.140626-43.339844 84.6875-57.097656 126.730469-.050781.148438-.101563.300781-.148438.449219h-5.828125c-7.875 0-14.285156 6.523438-14.285156 14.542969v40.203125c0 8.019531 6.410156 14.542968 14.285156 14.542968h224.214844c4.140625 0 7.5-3.359374 7.5-7.503906 0-4.140625-3.359375-7.5-7.5-7.5h-223.5v-39.285156h482v39.285156h-223.5c-4.144531 0-7.5 3.359375-7.5 7.5 0 4.144532 3.355469 7.503906 7.5 7.503906h224.210938c7.878906 0 14.289062-6.523437 14.289062-14.542968v-40.203125c0-8.019531-6.410156-14.542969-14.285156-14.542969zm-368.484375-143.96875c4.988281-2.117188 8.105469-7.050781 7.933593-12.5625-.042968-1.5.046876-3.023438.265626-4.519531 2.246093-15.289063 17.9375-25.527344 33.195312-20.523438 5.988281 1.96875 12.363281-1.734375 13.621094-7.949219 4.714844-23.363281 37.253906-26.574218 46.28125-4.265624 2.089844 5.167968 7.617187 8.144531 13.128906 7.085937 3.425781-.65625 7.023438-.433594 10.328125.644531 5.417969 1.761719 11.3125-.773437 13.707031-5.902344 9.8125-21.066406 39.433594-23.089843 51.757813-2.882812 2.878906 4.726562 8.835937 6.515625 13.851562 4.167969 15.246094-7.140625 32.5625 5.417969 30.921875 21.933593-.441406 4.476563 3.132813 8.375 7.710938 8.234376 10.511718.046874 19.335937 7.367187 21.699218 17.171874h-265.738281c.433594-.230468.878907-.441406 1.335938-.632812zm-93.332031 143.96875c1.859374-5.675781 3.765624-11.453125 5.734374-17.273438.015626-.039062.027344-.082031.039063-.121093h428.652344c2 5.925781 3.824219 11.441406 5.777343 17.394531zm0 0" fill="#00c8cd"/></svg>
