<?xml version="1.0" encoding="iso-8859-1"?>
<!-- Generator: Adobe Illustrator 19.0.0, SVG Export Plug-In . SVG Version: 6.00 Build 0)  -->
<svg xmlns="http://www.w3.org/2000/svg" xmlns:xlink="http://www.w3.org/1999/xlink" version="1.1" id="Capa_1" x="0px" y="0px" viewBox="0 0 512 512" style="enable-background:new 0 0 512 512;" xml:space="preserve" width="512px" height="512px">
<g>
	<g>
		<path d="M85.667,112.219c-35.083,0-63.624,28.542-63.624,63.624c0,32.539,24.558,59.434,56.11,63.165v49.054    c0,4.15,3.365,7.515,7.515,7.515c4.15,0,7.515-3.365,7.515-7.515v-49.054c31.552-3.731,56.11-30.627,56.11-63.165    C149.292,140.761,120.75,112.219,85.667,112.219z M85.667,224.438c-26.795,0-48.595-21.8-48.595-48.595s21.8-48.595,48.595-48.595    c26.795,0,48.595,21.8,48.595,48.595S112.463,224.438,85.667,224.438z" fill="#FFFFFF"/>
	</g>
</g>
<g>
	<g>
		<path d="M85.667,144.282c-17.403,0-31.562,14.159-31.562,31.562s14.159,31.562,31.562,31.562    c17.403,0,31.562-14.159,31.562-31.562S103.07,144.282,85.667,144.282z M85.667,192.376c-9.116,0-16.532-7.417-16.532-16.532    s7.417-16.532,16.532-16.532c9.116,0,16.532,7.417,16.532,16.532S94.783,192.376,85.667,192.376z" fill="#FFFFFF"/>
	</g>
</g>
<g>
	<g>
		<path d="M482.442,180.352h-4.509V51.601c0-21.823-17.755-39.577-39.577-39.577h-16.532V7.515c0-4.15-3.364-7.515-7.515-7.515    H394.27c-10.773,0-19.538,8.765-19.538,19.538c0,10.773,8.765,19.538,19.538,19.538h20.039c4.151,0,7.515-3.365,7.515-7.515    v-4.509h16.532c13.536,0,24.548,11.013,24.548,24.548v128.751h-4.509c-4.151,0-7.515,3.365-7.515,7.515v12.023    c0,33.425-27.194,60.618-60.618,60.618h-96.188c-33.424,0-60.618-27.193-60.618-60.618v-12.023c0-4.15-3.365-7.515-7.515-7.515    h-4.509V51.601c0-13.535,11.013-24.548,24.548-24.548h16.532v4.509c0,4.15,3.364,7.515,7.515,7.515h20.039    c10.773,0,19.538-8.765,19.538-19.538C309.605,8.765,300.84,0,290.066,0h-20.039c-4.151,0-7.515,3.365-7.515,7.515v4.509H245.98    c-21.823,0-39.577,17.755-39.577,39.577v128.751h-4.509c-4.15,0-7.515,3.365-7.515,7.515v12.023    c0,54.971,44.723,99.695,99.695,99.695h28.556v36.571c0,4.15,3.364,7.515,7.515,7.515h4.509v40.579    c0,62.154-50.567,112.72-112.72,112.72h-16.031c-62.154,0-112.72-50.566-112.72-112.72v-59.784c0-4.15-3.365-7.515-7.515-7.515    c-4.15,0-7.515,3.365-7.515,7.515v59.784c0,70.442,57.308,127.75,127.75,127.75h16.031c70.442,0,127.75-57.308,127.75-127.75    v-40.579h4.509c4.151,0,7.515-3.365,7.515-7.515v-36.571h28.556c54.971,0,99.695-44.723,99.695-99.695v-12.023    C489.957,183.717,486.593,180.352,482.442,180.352z M406.794,24.047H394.27c-2.486,0-4.509-2.023-4.509-4.509    s2.023-4.509,4.509-4.509h12.524V24.047z M277.542,15.029h12.524c2.486,0,4.509,2.023,4.509,4.509s-2.023,4.509-4.509,4.509    h-12.524V15.029z M474.928,199.89c0,46.684-37.98,84.665-84.665,84.665h-36.07c-4.151,0-7.515,3.365-7.515,7.515v36.571h-9.018    V292.07c0-4.15-3.364-7.515-7.515-7.515h-36.07c-46.685,0-84.665-37.981-84.665-84.665v-4.509h9.018v4.509    c0,41.713,33.935,75.648,75.648,75.648h96.188c41.713,0,75.648-33.935,75.648-75.648v-4.509h9.018V199.89z" fill="#FFFFFF"/>
	</g>
</g>
<g>
	<g>
		<path d="M342.168,120.235c-33.977,0-61.62,27.643-61.62,61.62c0,31.056,23.035,49.597,61.62,49.597    c38.585,0,61.62-18.541,61.62-49.597C403.789,147.878,376.146,120.235,342.168,120.235z M342.168,216.423    c-17.4,0-46.591-4.491-46.591-34.568c0-25.69,20.9-46.591,46.591-46.591s46.591,20.901,46.591,46.591    C388.759,211.932,359.568,216.423,342.168,216.423z" fill="#FFFFFF"/>
	</g>
</g>
<g>
	<g>
		<path d="M312.11,60.117c-15.359,0-25.55,18.996-25.55,31.562c0,14.089,11.461,25.55,25.55,25.55    c14.089,0,25.55-11.461,25.55-25.55C337.659,79.114,327.469,60.117,312.11,60.117z M312.11,102.2    c-5.801,0-10.521-4.719-10.521-10.521c0-7.107,5.998-16.532,10.521-16.532c4.523,0,10.521,9.425,10.521,16.532    C322.63,97.48,317.911,102.2,312.11,102.2z" fill="#FFFFFF"/>
	</g>
</g>
<g>
	<g>
		<path d="M372.227,60.117c-15.359,0-25.55,18.996-25.55,31.562c0,14.089,11.461,25.55,25.55,25.55    c14.089,0,25.55-11.461,25.55-25.55C397.777,79.114,387.586,60.117,372.227,60.117z M372.227,102.2    c-5.801,0-10.521-4.719-10.521-10.521c0-7.107,5.998-16.532,10.521-16.532s10.521,9.425,10.521,16.532    C382.748,97.48,378.028,102.2,372.227,102.2z" fill="#FFFFFF"/>
	</g>
</g>
<g>
	<g>
		<path d="M420.321,96.188c-15.359,0-25.55,18.996-25.55,31.562c0,14.089,11.461,25.55,25.55,25.55    c14.089,0,25.55-11.461,25.55-25.55C445.871,115.184,435.68,96.188,420.321,96.188z M420.321,138.27    c-5.801,0-10.521-4.719-10.521-10.521c0-7.107,5.998-16.532,10.521-16.532s10.521,9.425,10.521,16.532    C430.841,133.551,426.122,138.27,420.321,138.27z" fill="#FFFFFF"/>
	</g>
</g>
<g>
	<g>
		<path d="M264.016,96.188c-15.359,0-25.55,18.996-25.55,31.562c0,14.089,11.461,25.55,25.55,25.55    c14.089,0,25.55-11.461,25.55-25.55C289.566,115.184,279.375,96.188,264.016,96.188z M264.016,138.27    c-5.801,0-10.521-4.719-10.521-10.521c0-7.107,5.998-16.532,10.521-16.532c4.523,0,10.521,9.425,10.521,16.532    C274.536,133.551,269.817,138.27,264.016,138.27z" fill="#FFFFFF"/>
	</g>
</g>
<g>
</g>
<g>
</g>
<g>
</g>
<g>
</g>
<g>
</g>
<g>
</g>
<g>
</g>
<g>
</g>
<g>
</g>
<g>
</g>
<g>
</g>
<g>
</g>
<g>
</g>
<g>
</g>
<g>
</g>
</svg>
