<?xml version="1.0" encoding="iso-8859-1"?>
<!-- Generator: Adobe Illustrator 19.0.0, SVG Export Plug-In . SVG Version: 6.00 Build 0)  -->
<svg xmlns="http://www.w3.org/2000/svg" xmlns:xlink="http://www.w3.org/1999/xlink" version="1.1" id="Capa_1" x="0px" y="0px" viewBox="0 0 512.002 512.002" style="enable-background:new 0 0 512.002 512.002;" xml:space="preserve" width="512px" height="512px">
<g>
	<g>
		<path d="M425.978,177.553c-0.006-0.126-0.009-0.252-0.019-0.378c-0.028-0.346-0.073-0.688-0.136-1.023    c-0.006-0.035-0.009-0.07-0.016-0.105c-0.078-0.395-0.182-0.779-0.305-1.155c-0.02-0.062-0.045-0.121-0.066-0.182    c-0.109-0.314-0.234-0.621-0.374-0.919c-0.021-0.044-0.033-0.091-0.055-0.135L374.186,68.311V30c0-16.542-13.458-30-30-30H166.358    c-16.542,0-30,13.458-30,30v38.369L86.947,173.755c-0.017,0.037-0.027,0.075-0.044,0.112c-0.15,0.329-0.285,0.666-0.398,1.013    c-0.008,0.025-0.019,0.049-0.027,0.074c-0.12,0.374-0.216,0.756-0.291,1.147c-0.016,0.083-0.024,0.167-0.038,0.251    c-0.048,0.288-0.086,0.579-0.108,0.876c-0.01,0.134-0.016,0.268-0.021,0.402c-0.004,0.124-0.019,0.245-0.019,0.371V482.25    c0,16.405,13.347,29.752,29.753,29.752h280.494c16.406,0,29.753-13.347,29.753-29.752V178    C426.001,177.849,425.985,177.702,425.978,177.553z M156.358,30c0-5.514,4.486-10,10-10h177.828c5.514,0,10,4.486,10,10v30.597    H156.358V30z M134.157,120.176h59.596c5.523,0,10-4.477,10-10c0-5.523-4.477-10-10-10h-50.219l9.18-19.58h205.194L400.074,168    h-288.34L134.157,120.176z M406.001,452.176h-55.953c-5.523,0-10,4.477-10,10s4.477,10,10,10h55.953v10.073    c0,5.377-4.375,9.752-9.753,9.752H115.754c-5.378,0-9.753-4.375-9.753-9.752V188h300V452.176z" fill="#b66d49"/>
	</g>
</g>
<g>
	<g>
		<path d="M256.001,303.344c-39.536,0-71.7,32.278-71.7,71.952c0,39.674,32.165,71.952,71.7,71.952    c39.536,0,71.701-32.277,71.701-71.952S295.537,303.344,256.001,303.344z M256.001,427.248c-28.508,0-51.7-23.305-51.7-51.952    c0-28.646,23.192-51.952,51.7-51.952s51.701,23.306,51.701,51.952C307.702,403.943,284.509,427.248,256.001,427.248z" fill="#b66d49"/>
	</g>
</g>
<g>
	<g>
		<path d="M256.001,215.826c-19.523,0-35.406,16.838-35.406,37.534c0,20.697,15.883,37.535,35.406,37.535    s35.406-16.838,35.406-37.535C291.407,232.664,275.524,215.826,256.001,215.826z M256.001,270.895    c-8.495,0-15.406-7.866-15.406-17.535s6.911-17.534,15.406-17.534c8.495,0,15.406,7.866,15.406,17.534    C271.407,263.029,264.496,270.895,256.001,270.895z" fill="#b66d49"/>
	</g>
</g>
<g>
	<g>
		<path d="M330.575,250.244c-19.523,0-35.406,16.838-35.406,37.534c0,20.697,15.883,37.535,35.406,37.535    s35.406-16.838,35.406-37.535C365.981,267.082,350.098,250.244,330.575,250.244z M330.575,305.313    c-8.495,0-15.406-7.866-15.406-17.535c0-9.668,6.911-17.534,15.406-17.534s15.406,7.866,15.406,17.534    C345.981,297.447,339.07,305.313,330.575,305.313z" fill="#b66d49"/>
	</g>
</g>
<g>
	<g>
		<path d="M181.427,250.244c-19.523,0-35.406,16.838-35.406,37.534c0,20.697,15.883,37.535,35.406,37.535    c19.522,0,35.406-16.838,35.406-37.535C216.833,267.082,200.95,250.244,181.427,250.244z M181.427,305.313    c-8.495,0-15.406-7.866-15.406-17.535c0-9.668,6.911-17.534,15.406-17.534s15.406,7.866,15.406,17.534    C196.833,297.447,189.922,305.313,181.427,305.313z" fill="#b66d49"/>
	</g>
</g>
<g>
	<g>
		<path d="M223.801,100.176h-0.324c-5.523,0-10,4.477-10,10c0,5.523,4.477,10,10,10h0.324c5.523,0,10-4.477,10-10    C233.801,104.653,229.324,100.176,223.801,100.176z" fill="#b66d49"/>
	</g>
</g>
<g>
	<g>
		<path d="M320.325,452.176h-0.324c-5.523,0-10,4.477-10,10s4.477,10,10,10h0.324c5.523,0,10-4.477,10-10    C330.325,456.653,325.848,452.176,320.325,452.176z" fill="#b66d49"/>
	</g>
</g>
<g>
</g>
<g>
</g>
<g>
</g>
<g>
</g>
<g>
</g>
<g>
</g>
<g>
</g>
<g>
</g>
<g>
</g>
<g>
</g>
<g>
</g>
<g>
</g>
<g>
</g>
<g>
</g>
<g>
</g>
</svg>
